<svg xmlns="http://www.w3.org/2000/svg" viewBox="0 0 32 32">
  <defs>
    <linearGradient id="g" x1="0" y1="0" x2="1" y2="1">
      <stop offset="0%" stop-color="#2D6FFF"/>
      <stop offset="100%" stop-color="#1a4fd8"/>
    </linearGradient>
  </defs>
  <rect width="32" height="32" rx="7" fill="url(#g)"/>
  <!-- Lucide Printer icon paths scaled to fit 32×32 box -->
  <g transform="translate(8.8 8.8) scale(0.6)" stroke="white" stroke-width="3.67" stroke-linecap="round" stroke-linejoin="round" fill="none">
    <path d="M6 18H4a2 2 0 0 1-2-2v-5a2 2 0 0 1 2-2h16a2 2 0 0 1 2 2v5a2 2 0 0 1-2 2h-2"/>
    <path d="M6 9V3a1 1 0 0 1 1-1h10a1 1 0 0 1 1 1v6"/>
    <rect x="6" y="14" width="12" height="8" rx="1"/>
  </g>
</svg>
